<svg width="180" height="180" viewBox="0 0 180 180" fill="none" xmlns="http://www.w3.org/2000/svg">
<rect width="180" height="180" fill="#3B3947"/>
<path d="M36.928 126.344C39.36 126.344 40.576 125.512 40.576 123.848C40.576 123.336 40.464 122.904 40.24 122.552C40.032 122.184 39.744 121.872 39.376 121.616C39.008 121.344 38.584 121.112 38.104 120.92C37.64 120.728 37.144 120.536 36.616 120.344C36.008 120.136 35.432 119.904 34.888 119.648C34.344 119.376 33.872 119.064 33.472 118.712C33.072 118.344 32.752 117.912 32.512 117.416C32.288 116.92 32.176 116.32 32.176 115.616C32.176 114.16 32.672 113.024 33.664 112.208C34.656 111.392 36.024 110.984 37.768 110.984C38.776 110.984 39.688 111.096 40.504 111.32C41.336 111.528 41.944 111.76 42.328 112.016L41.584 113.912C41.248 113.704 40.744 113.504 40.072 113.312C39.416 113.104 38.648 113 37.768 113C37.32 113 36.904 113.048 36.52 113.144C36.136 113.24 35.8 113.384 35.512 113.576C35.224 113.768 34.992 114.016 34.816 114.32C34.656 114.608 34.576 114.952 34.576 115.352C34.576 115.8 34.664 116.176 34.84 116.48C35.016 116.784 35.264 117.056 35.584 117.296C35.904 117.52 36.272 117.728 36.688 117.92C37.12 118.112 37.592 118.304 38.104 118.496C38.824 118.784 39.48 119.072 40.072 119.36C40.68 119.648 41.2 119.992 41.632 120.392C42.08 120.792 42.424 121.272 42.664 121.832C42.904 122.376 43.024 123.04 43.024 123.824C43.024 125.28 42.488 126.4 41.416 127.184C40.36 127.968 38.864 128.36 36.928 128.36C36.272 128.36 35.664 128.312 35.104 128.216C34.56 128.136 34.072 128.04 33.64 127.928C33.208 127.8 32.832 127.672 32.512 127.544C32.208 127.4 31.968 127.28 31.792 127.184L32.488 125.264C32.856 125.472 33.416 125.704 34.168 125.96C34.92 126.216 35.84 126.344 36.928 126.344ZM45.1654 119.672C45.1654 118.248 45.3734 116.992 45.7894 115.904C46.2214 114.816 46.7974 113.912 47.5174 113.192C48.2534 112.456 49.1014 111.904 50.0614 111.536C51.0374 111.168 52.0694 110.984 53.1574 110.984C54.2294 110.984 55.2374 111.168 56.1814 111.536C57.1414 111.904 57.9814 112.456 58.7014 113.192C59.4214 113.912 59.9894 114.816 60.4054 115.904C60.8374 116.992 61.0534 118.248 61.0534 119.672C61.0534 121.096 60.8374 122.352 60.4054 123.44C59.9894 124.528 59.4214 125.44 58.7014 126.176C57.9814 126.896 57.1414 127.44 56.1814 127.808C55.2374 128.176 54.2294 128.36 53.1574 128.36C52.0694 128.36 51.0374 128.176 50.0614 127.808C49.1014 127.44 48.2534 126.896 47.5174 126.176C46.7974 125.44 46.2214 124.528 45.7894 123.44C45.3734 122.352 45.1654 121.096 45.1654 119.672ZM47.6134 119.672C47.6134 120.68 47.7414 121.6 47.9974 122.432C48.2534 123.248 48.6134 123.944 49.0774 124.52C49.5574 125.096 50.1334 125.544 50.8054 125.864C51.4934 126.168 52.2614 126.32 53.1094 126.32C53.9574 126.32 54.7174 126.168 55.3894 125.864C56.0614 125.544 56.6294 125.096 57.0934 124.52C57.5734 123.944 57.9414 123.248 58.1974 122.432C58.4534 121.6 58.5814 120.68 58.5814 119.672C58.5814 118.664 58.4534 117.752 58.1974 116.936C57.9414 116.104 57.5734 115.4 57.0934 114.824C56.6294 114.248 56.0614 113.808 55.3894 113.504C54.7174 113.184 53.9574 113.024 53.1094 113.024C52.2614 113.024 51.4934 113.184 50.8054 113.504C50.1334 113.808 49.5574 114.248 49.0774 114.824C48.6134 115.4 48.2534 116.104 47.9974 116.936C47.7414 117.752 47.6134 118.664 47.6134 119.672ZM74.5251 125.984V128H64.5171V111.368H66.8451V125.984H74.5251ZM82.7326 128.36C81.6446 128.36 80.7006 128.192 79.9006 127.856C79.1006 127.52 78.4446 127.064 77.9326 126.488C77.4206 125.896 77.0366 125.2 76.7806 124.4C76.5406 123.6 76.4206 122.736 76.4206 121.808V111.368H78.7486V121.544C78.7486 123.208 79.1166 124.416 79.8526 125.168C80.5886 125.92 81.5486 126.296 82.7326 126.296C83.3246 126.296 83.8606 126.208 84.3406 126.032C84.8366 125.84 85.2606 125.552 85.6126 125.168C85.9646 124.784 86.2366 124.296 86.4286 123.704C86.6206 123.096 86.7166 122.376 86.7166 121.544V111.368H89.0446V121.808C89.0446 122.736 88.9166 123.6 88.6606 124.4C88.4206 125.2 88.0366 125.896 87.5086 126.488C86.9966 127.064 86.3406 127.52 85.5406 127.856C84.7566 128.192 83.8206 128.36 82.7326 128.36ZM104.176 111.368V113.384H98.944V128H96.616V113.384H91.384V111.368H104.176ZM106.634 111.368H108.962V128H106.634V111.368ZM112.408 119.672C112.408 118.248 112.616 116.992 113.032 115.904C113.464 114.816 114.04 113.912 114.76 113.192C115.496 112.456 116.344 111.904 117.304 111.536C118.28 111.168 119.312 110.984 120.4 110.984C121.472 110.984 122.48 111.168 123.424 111.536C124.384 111.904 125.224 112.456 125.944 113.192C126.664 113.912 127.232 114.816 127.648 115.904C128.08 116.992 128.296 118.248 128.296 119.672C128.296 121.096 128.08 122.352 127.648 123.44C127.232 124.528 126.664 125.44 125.944 126.176C125.224 126.896 124.384 127.44 123.424 127.808C122.48 128.176 121.472 128.36 120.4 128.36C119.312 128.36 118.28 128.176 117.304 127.808C116.344 127.44 115.496 126.896 114.76 126.176C114.04 125.44 113.464 124.528 113.032 123.44C112.616 122.352 112.408 121.096 112.408 119.672ZM114.856 119.672C114.856 120.68 114.984 121.6 115.24 122.432C115.496 123.248 115.856 123.944 116.32 124.52C116.8 125.096 117.376 125.544 118.048 125.864C118.736 126.168 119.504 126.32 120.352 126.32C121.2 126.32 121.96 126.168 122.632 125.864C123.304 125.544 123.872 125.096 124.336 124.52C124.816 123.944 125.184 123.248 125.44 122.432C125.696 121.6 125.824 120.68 125.824 119.672C125.824 118.664 125.696 117.752 125.44 116.936C125.184 116.104 124.816 115.4 124.336 114.824C123.872 114.248 123.304 113.808 122.632 113.504C121.96 113.184 121.2 113.024 120.352 113.024C119.504 113.024 118.736 113.184 118.048 113.504C117.376 113.808 116.8 114.248 116.32 114.824C115.856 115.4 115.496 116.104 115.24 116.936C114.984 117.752 114.856 118.664 114.856 119.672ZM143.159 128C142.807 127.408 142.399 126.744 141.935 126.008C141.487 125.272 140.999 124.512 140.471 123.728C139.943 122.928 139.391 122.12 138.815 121.304C138.255 120.488 137.695 119.704 137.135 118.952C136.575 118.184 136.031 117.464 135.503 116.792C134.975 116.12 134.487 115.528 134.039 115.016V128H131.759V111.368H133.607C134.359 112.168 135.159 113.104 136.007 114.176C136.871 115.232 137.719 116.328 138.551 117.464C139.399 118.584 140.191 119.688 140.927 120.776C141.679 121.864 142.311 122.832 142.823 123.68V111.368H145.103V128H143.159Z" fill="white"/>
<path d="M49.66 95.54C47.38 95.54 45.1 95.46 42.82 95.3C40.58 95.18 38.24 94.86 35.8 94.34V54.02C37.72 53.66 39.82 53.4 42.1 53.24C44.38 53.04 46.5 52.94 48.46 52.94C51.1 52.94 53.52 53.14 55.72 53.54C57.96 53.9 59.88 54.54 61.48 55.46C63.08 56.38 64.32 57.6 65.2 59.12C66.12 60.6 66.58 62.44 66.58 64.64C66.58 67.96 64.98 70.58 61.78 72.5C64.42 73.5 66.22 74.86 67.18 76.58C68.14 78.3 68.62 80.24 68.62 82.4C68.62 86.76 67.02 90.04 63.82 92.24C60.66 94.44 55.94 95.54 49.66 95.54ZM44.92 76.88V87.62C45.6 87.7 46.34 87.76 47.14 87.8C47.94 87.84 48.82 87.86 49.78 87.86C52.58 87.86 54.84 87.46 56.56 86.66C58.28 85.86 59.14 84.38 59.14 82.22C59.14 80.3 58.42 78.94 56.98 78.14C55.54 77.3 53.48 76.88 50.8 76.88H44.92ZM44.92 69.74H49.48C52.36 69.74 54.42 69.38 55.66 68.66C56.9 67.9 57.52 66.7 57.52 65.06C57.52 63.38 56.88 62.2 55.6 61.52C54.32 60.84 52.44 60.5 49.96 60.5C49.16 60.5 48.3 60.52 47.38 60.56C46.46 60.56 45.64 60.6 44.92 60.68V69.74ZM85.1125 53.42H94.4725V95H85.1125V53.42ZM142.437 59.9C141.157 61.22 139.637 62.94 137.877 65.06C136.117 67.14 134.297 69.42 132.417 71.9C130.537 74.38 128.677 76.94 126.837 79.58C124.997 82.22 123.357 84.74 121.917 87.14H143.097V95H110.397V89.42C111.517 87.38 112.877 85.12 114.477 82.64C116.117 80.12 117.817 77.6 119.577 75.08C121.337 72.52 123.117 70.06 124.917 67.7C126.757 65.3 128.457 63.16 130.017 61.28H111.357V53.42H142.437V59.9Z" fill="white"/>
</svg>
