<svg width="59" height="51" viewBox="0 0 59 51" fill="none" xmlns="http://www.w3.org/2000/svg">
<path d="M2.964 46.172C4.18 46.172 4.788 45.756 4.788 44.924C4.788 44.668 4.732 44.452 4.62 44.276C4.516 44.092 4.372 43.936 4.188 43.808C4.004 43.672 3.792 43.556 3.552 43.46C3.32 43.364 3.072 43.268 2.808 43.172C2.504 43.068 2.216 42.952 1.944 42.824C1.672 42.688 1.436 42.532 1.236 42.356C1.036 42.172 0.876 41.956 0.756 41.708C0.644 41.46 0.588 41.16 0.588 40.808C0.588 40.08 0.836 39.512 1.332 39.104C1.828 38.696 2.512 38.492 3.384 38.492C3.888 38.492 4.344 38.548 4.752 38.66C5.168 38.764 5.472 38.88 5.664 39.008L5.292 39.956C5.124 39.852 4.872 39.752 4.536 39.656C4.208 39.552 3.824 39.5 3.384 39.5C3.16 39.5 2.952 39.524 2.76 39.572C2.568 39.62 2.4 39.692 2.256 39.788C2.112 39.884 1.996 40.008 1.908 40.16C1.828 40.304 1.788 40.476 1.788 40.676C1.788 40.9 1.832 41.088 1.92 41.24C2.008 41.392 2.132 41.528 2.292 41.648C2.452 41.76 2.636 41.864 2.844 41.96C3.06 42.056 3.296 42.152 3.552 42.248C3.912 42.392 4.24 42.536 4.536 42.68C4.84 42.824 5.1 42.996 5.316 43.196C5.54 43.396 5.712 43.636 5.832 43.916C5.952 44.188 6.012 44.52 6.012 44.912C6.012 45.64 5.744 46.2 5.208 46.592C4.68 46.984 3.932 47.18 2.964 47.18C2.636 47.18 2.332 47.156 2.052 47.108C1.78 47.068 1.536 47.02 1.32 46.964C1.104 46.9 0.916 46.836 0.756 46.772C0.604 46.7 0.484 46.64 0.396 46.592L0.744 45.632C0.928 45.736 1.208 45.852 1.584 45.98C1.96 46.108 2.42 46.172 2.964 46.172ZM7.08272 42.836C7.08272 42.124 7.18672 41.496 7.39472 40.952C7.61072 40.408 7.89872 39.956 8.25872 39.596C8.62672 39.228 9.05072 38.952 9.53072 38.768C10.0187 38.584 10.5347 38.492 11.0787 38.492C11.6147 38.492 12.1187 38.584 12.5907 38.768C13.0707 38.952 13.4907 39.228 13.8507 39.596C14.2107 39.956 14.4947 40.408 14.7027 40.952C14.9187 41.496 15.0267 42.124 15.0267 42.836C15.0267 43.548 14.9187 44.176 14.7027 44.72C14.4947 45.264 14.2107 45.72 13.8507 46.088C13.4907 46.448 13.0707 46.72 12.5907 46.904C12.1187 47.088 11.6147 47.18 11.0787 47.18C10.5347 47.18 10.0187 47.088 9.53072 46.904C9.05072 46.72 8.62672 46.448 8.25872 46.088C7.89872 45.72 7.61072 45.264 7.39472 44.72C7.18672 44.176 7.08272 43.548 7.08272 42.836ZM8.30672 42.836C8.30672 43.34 8.37072 43.8 8.49872 44.216C8.62672 44.624 8.80672 44.972 9.03872 45.26C9.27872 45.548 9.56672 45.772 9.90272 45.932C10.2467 46.084 10.6307 46.16 11.0547 46.16C11.4787 46.16 11.8587 46.084 12.1947 45.932C12.5307 45.772 12.8147 45.548 13.0467 45.26C13.2867 44.972 13.4707 44.624 13.5987 44.216C13.7267 43.8 13.7907 43.34 13.7907 42.836C13.7907 42.332 13.7267 41.876 13.5987 41.468C13.4707 41.052 13.2867 40.7 13.0467 40.412C12.8147 40.124 12.5307 39.904 12.1947 39.752C11.8587 39.592 11.4787 39.512 11.0547 39.512C10.6307 39.512 10.2467 39.592 9.90272 39.752C9.56672 39.904 9.27872 40.124 9.03872 40.412C8.80672 40.7 8.62672 41.052 8.49872 41.468C8.37072 41.876 8.30672 42.332 8.30672 42.836ZM21.7626 45.992V47H16.7586V38.684H17.9226V45.992H21.7626ZM25.8663 47.18C25.3223 47.18 24.8503 47.096 24.4503 46.928C24.0503 46.76 23.7223 46.532 23.4663 46.244C23.2103 45.948 23.0183 45.6 22.8903 45.2C22.7703 44.8 22.7103 44.368 22.7103 43.904V38.684H23.8743V43.772C23.8743 44.604 24.0583 45.208 24.4263 45.584C24.7943 45.96 25.2743 46.148 25.8663 46.148C26.1623 46.148 26.4303 46.104 26.6703 46.016C26.9183 45.92 27.1303 45.776 27.3063 45.584C27.4823 45.392 27.6183 45.148 27.7143 44.852C27.8103 44.548 27.8583 44.188 27.8583 43.772V38.684H29.0223V43.904C29.0223 44.368 28.9583 44.8 28.8303 45.2C28.7103 45.6 28.5183 45.948 28.2543 46.244C27.9983 46.532 27.6703 46.76 27.2703 46.928C26.8783 47.096 26.4103 47.18 25.8663 47.18ZM36.588 38.684V39.692H33.972V47H32.808V39.692H30.192V38.684H36.588ZM37.8172 38.684H38.9812V47H37.8172V38.684ZM40.7038 42.836C40.7038 42.124 40.8078 41.496 41.0158 40.952C41.2318 40.408 41.5198 39.956 41.8798 39.596C42.2478 39.228 42.6718 38.952 43.1518 38.768C43.6398 38.584 44.1558 38.492 44.6998 38.492C45.2358 38.492 45.7398 38.584 46.2118 38.768C46.6918 38.952 47.1118 39.228 47.4718 39.596C47.8318 39.956 48.1158 40.408 48.3238 40.952C48.5398 41.496 48.6478 42.124 48.6478 42.836C48.6478 43.548 48.5398 44.176 48.3238 44.72C48.1158 45.264 47.8318 45.72 47.4718 46.088C47.1118 46.448 46.6918 46.72 46.2118 46.904C45.7398 47.088 45.2358 47.18 44.6998 47.18C44.1558 47.18 43.6398 47.088 43.1518 46.904C42.6718 46.72 42.2478 46.448 41.8798 46.088C41.5198 45.72 41.2318 45.264 41.0158 44.72C40.8078 44.176 40.7038 43.548 40.7038 42.836ZM41.9278 42.836C41.9278 43.34 41.9918 43.8 42.1198 44.216C42.2478 44.624 42.4278 44.972 42.6598 45.26C42.8998 45.548 43.1878 45.772 43.5238 45.932C43.8678 46.084 44.2518 46.16 44.6758 46.16C45.0998 46.16 45.4798 46.084 45.8158 45.932C46.1518 45.772 46.4358 45.548 46.6678 45.26C46.9078 44.972 47.0918 44.624 47.2198 44.216C47.3478 43.8 47.4118 43.34 47.4118 42.836C47.4118 42.332 47.3478 41.876 47.2198 41.468C47.0918 41.052 46.9078 40.7 46.6678 40.412C46.4358 40.124 46.1518 39.904 45.8158 39.752C45.4798 39.592 45.0998 39.512 44.6758 39.512C44.2518 39.512 43.8678 39.592 43.5238 39.752C43.1878 39.904 42.8998 40.124 42.6598 40.412C42.4278 40.7 42.2478 41.052 42.1198 41.468C41.9918 41.876 41.9278 42.332 41.9278 42.836ZM56.0797 47C55.9037 46.704 55.6997 46.372 55.4677 46.004C55.2437 45.636 54.9997 45.256 54.7357 44.864C54.4717 44.464 54.1957 44.06 53.9077 43.652C53.6277 43.244 53.3477 42.852 53.0677 42.476C52.7877 42.092 52.5157 41.732 52.2517 41.396C51.9877 41.06 51.7437 40.764 51.5197 40.508V47H50.3797V38.684H51.3037C51.6797 39.084 52.0797 39.552 52.5037 40.088C52.9357 40.616 53.3597 41.164 53.7757 41.732C54.1997 42.292 54.5957 42.844 54.9637 43.388C55.3397 43.932 55.6557 44.416 55.9117 44.84V38.684H57.0517V47H56.0797Z" fill="white"/>
<path d="M9.33 31.27C8.19 31.27 7.05 31.23 5.91 31.15C4.79 31.09 3.62 30.93 2.4 30.67V10.51C3.36 10.33 4.41 10.2 5.55 10.12C6.69 10.02 7.75 9.97 8.73 9.97C10.05 9.97 11.26 10.07 12.36 10.27C13.48 10.45 14.44 10.77 15.24 11.23C16.04 11.69 16.66 12.3 17.1 13.06C17.56 13.8 17.79 14.72 17.79 15.82C17.79 17.48 16.99 18.79 15.39 19.75C16.71 20.25 17.61 20.93 18.09 21.79C18.57 22.65 18.81 23.62 18.81 24.7C18.81 26.88 18.01 28.52 16.41 29.62C14.83 30.72 12.47 31.27 9.33 31.27ZM6.96 21.94V27.31C7.3 27.35 7.67 27.38 8.07 27.4C8.47 27.42 8.91 27.43 9.39 27.43C10.79 27.43 11.92 27.23 12.78 26.83C13.64 26.43 14.07 25.69 14.07 24.61C14.07 23.65 13.71 22.97 12.99 22.57C12.27 22.15 11.24 21.94 9.9 21.94H6.96ZM6.96 18.37H9.24C10.68 18.37 11.71 18.19 12.33 17.83C12.95 17.45 13.26 16.85 13.26 16.03C13.26 15.19 12.94 14.6 12.3 14.26C11.66 13.92 10.72 13.75 9.48 13.75C9.08 13.75 8.65 13.76 8.19 13.78C7.73 13.78 7.32 13.8 6.96 13.84V18.37ZM27.0563 10.21H31.7363V31H27.0563V10.21ZM55.7184 13.45C55.0784 14.11 54.3184 14.97 53.4384 16.03C52.5584 17.07 51.6484 18.21 50.7084 19.45C49.7684 20.69 48.8384 21.97 47.9184 23.29C46.9984 24.61 46.1784 25.87 45.4584 27.07H56.0484V31H39.6984V28.21C40.2584 27.19 40.9384 26.06 41.7384 24.82C42.5584 23.56 43.4084 22.3 44.2884 21.04C45.1684 19.76 46.0584 18.53 46.9584 17.35C47.8784 16.15 48.7284 15.08 49.5084 14.14H40.1784V10.21H55.7184V13.45Z" fill="white"/>
</svg>
